<?xml version="1.0" encoding="UTF-8"?>
<svg data-figure="" width="1250" height="590" viewBox="-10 -10 1250 590" aria-label="Datapath of the 5 stage pipeline" xmlns="http://www.w3.org/2000/svg"><rect x="-10" y="-10" width="1250" height="590" fill="#ffffff"/><g><text x="14" y="11" fill="#667085" font-family="&quot;IBM Plex Sans&quot;, system-ui, &quot;Segoe UI&quot;, Roboto, sans-serif" font-size="10px">IF · fetch</text><rect x="10" y="15" width="226" height="22" rx="4" fill="#ffffff" stroke="#b4bfcf" stroke-width="1.5px" stroke-dasharray="3px, 3px"/><text x="123" y="30" fill="#667085" font-family="&quot;IBM Plex Sans&quot;, system-ui, &quot;Segoe UI&quot;, Roboto, sans-serif" font-size="11.5px" font-style="italic" text-anchor="middle">bubble</text></g><g><text x="258" y="11" fill="#667085" font-family="&quot;IBM Plex Sans&quot;, system-ui, &quot;Segoe UI&quot;, Roboto, sans-serif" font-size="10px">ID · decode</text><rect x="254" y="15" width="266" height="22" rx="4" fill="#d1eadf" stroke="#2f9e6e" stroke-width="1.5px" stroke-dasharray="4px, 3px"/><text x="387" y="30" fill="#111827" font-family="&quot;IBM Plex Mono&quot;, ui-monospace, SFMono-Regular, Consolas, monospace" font-size="11px" text-anchor="middle">fadd.s f5, f1, f4</text></g><g><text x="542" y="11" fill="#667085" font-family="&quot;IBM Plex Sans&quot;, system-ui, &quot;Segoe UI&quot;, Roboto, sans-serif" font-size="10px">EX · execute</text><rect x="538" y="15" width="320" height="22" rx="4" fill="#dbdff8" stroke="#5b6ee1" stroke-width="1.5px"/><text x="698" y="30" fill="#111827" font-family="&quot;IBM Plex Mono&quot;, ui-monospace, SFMono-Regular, Consolas, monospace" font-size="11px" text-anchor="middle">fmul.s f4, f1, f2</text></g><g><text x="880" y="11" fill="#667085" font-family="&quot;IBM Plex Sans&quot;, system-ui, &quot;Segoe UI&quot;, Roboto, sans-serif" font-size="10px">MEM · memory</text><rect x="876" y="15" width="180" height="22" rx="4" fill="#ffffff" stroke="#b4bfcf" stroke-width="1.5px" stroke-dasharray="3px, 3px"/><text x="966" y="30" fill="#667085" font-family="&quot;IBM Plex Sans&quot;, system-ui, &quot;Segoe UI&quot;, Roboto, sans-serif" font-size="11.5px" font-style="italic" text-anchor="middle">bubble</text></g><g><text x="1078" y="11" fill="#667085" font-family="&quot;IBM Plex Sans&quot;, system-ui, &quot;Segoe UI&quot;, Roboto, sans-serif" font-size="10px">WB · write back</text><rect x="1074" y="15" width="146" height="22" rx="4" fill="#ffffff" stroke="#b4bfcf" stroke-width="1.5px" stroke-dasharray="3px, 3px"/><text x="1147" y="30" fill="#667085" font-family="&quot;IBM Plex Sans&quot;, system-ui, &quot;Segoe UI&quot;, Roboto, sans-serif" font-size="11.5px" font-style="italic" text-anchor="middle">bubble</text></g><rect x="236" y="56" width="18" height="414" rx="3" fill="#e3eaff" stroke="#1650ff" stroke-width="1.5px"/><text x="245" y="263" transform="rotate(-90 245 263)" fill="#111827" font-family="&quot;IBM Plex Sans&quot;, system-ui, &quot;Segoe UI&quot;, Roboto, sans-serif" font-size="10px" font-weight="600" text-anchor="middle">IF/ID</text><rect x="520" y="56" width="18" height="414" rx="3" fill="#e3eaff" stroke="#1650ff" stroke-width="1.5px"/><text x="529" y="263" transform="rotate(-90 529 263)" fill="#111827" font-family="&quot;IBM Plex Sans&quot;, system-ui, &quot;Segoe UI&quot;, Roboto, sans-serif" font-size="10px" font-weight="600" text-anchor="middle">ID/EX</text><rect x="858" y="56" width="18" height="414" rx="3" fill="#e3eaff" stroke="#1650ff" stroke-width="1.5px"/><text x="867" y="263" transform="rotate(-90 867 263)" fill="#111827" font-family="&quot;IBM Plex Sans&quot;, system-ui, &quot;Segoe UI&quot;, Roboto, sans-serif" font-size="10px" font-weight="600" text-anchor="middle">EX/MEM</text><rect x="1056" y="56" width="18" height="414" rx="3" fill="#e3eaff" stroke="#1650ff" stroke-width="1.5px"/><text x="1065" y="263" transform="rotate(-90 1065 263)" fill="#111827" font-family="&quot;IBM Plex Sans&quot;, system-ui, &quot;Segoe UI&quot;, Roboto, sans-serif" font-size="10px" font-weight="600" text-anchor="middle">MEM/WB</text><path d="M18,190 L32,198 L32,242 L18,250 Z" fill="#ffffff" stroke="#8796ad" stroke-width="1.5px"/><text x="25" y="186" fill="#667085" font-family="&quot;IBM Plex Sans&quot;, system-ui, &quot;Segoe UI&quot;, Roboto, sans-serif" font-size="10px" text-anchor="middle">PCSrc</text><g><rect x="46" y="180" width="36" height="80" rx="4" fill="#ffffff" stroke="#8796ad" stroke-width="1.5px"/><text x="64" y="224" fill="#111827" font-family="&quot;IBM Plex Sans&quot;, system-ui, &quot;Segoe UI&quot;, Roboto, sans-serif" font-size="12px" font-weight="600" text-anchor="middle">PC</text></g><text x="64" y="174" fill="#b23a12" font-family="&quot;IBM Plex Mono&quot;, ui-monospace, SFMono-Regular, Consolas, monospace" font-size="10px" font-weight="600" text-anchor="middle">0x8</text><rect x="110" y="80" width="44" height="32" rx="14" fill="#ffffff" stroke="#8796ad" stroke-width="1.5px"/><text x="132" y="100" fill="#111827" font-family="&quot;IBM Plex Sans&quot;, system-ui, &quot;Segoe UI&quot;, Roboto, sans-serif" font-size="12px" font-weight="600" text-anchor="middle">+4</text><rect x="110" y="170" width="110" height="110" rx="4" fill="#ffffff" stroke="#8796ad" stroke-width="1.5px"/><text x="165" y="220" fill="#111827" font-family="&quot;IBM Plex Sans&quot;, system-ui, &quot;Segoe UI&quot;, Roboto, sans-serif" font-size="12px" text-anchor="middle">Instruction</text><text x="165" y="236" fill="#111827" font-family="&quot;IBM Plex Sans&quot;, system-ui, &quot;Segoe UI&quot;, Roboto, sans-serif" font-size="12px" text-anchor="middle">memory</text><polyline points="32,220 46,220" fill="none" stroke="#8f9bb0" stroke-width="1.8px"/><path d="M46,220 L39.0,224.0 L39.0,216.0 Z" fill="#8f9bb0" stroke="none" stroke-width="1px"/><polyline points="82,220 110,220" fill="none" stroke="#8f9bb0" stroke-width="1.8px"/><path d="M110,220 L103.0,224.0 L103.0,216.0 Z" fill="#8f9bb0" stroke="none" stroke-width="1px"/><polyline points="96,220 96,96 110,96" fill="none" stroke="#8f9bb0" stroke-width="1.8px"/><path d="M110,96 L103.0,100.0 L103.0,92.0 Z" fill="#8f9bb0" stroke="none" stroke-width="1px"/><circle cx="96" cy="220" r="3" fill="#8f9bb0" stroke="none" stroke-width="1px"/><polyline points="220,225 236,225" fill="none" stroke="#8f9bb0" stroke-width="1.8px"/><path d="M236,225 L229.0,229.0 L229.0,221.0 Z" fill="#8f9bb0" stroke="none" stroke-width="1px"/><polyline points="154,96 236,96" fill="none" stroke="#8f9bb0" stroke-width="1.8px"/><path d="M236,96 L229.0,100.0 L229.0,92.0 Z" fill="#8f9bb0" stroke="none" stroke-width="1px"/><polyline points="164,96 164,48 10,48 10,205 18,205" fill="none" stroke="#8f9bb0" stroke-width="1.8px"/><path d="M18,205 L11.0,209.0 L11.0,201.0 Z" fill="#8f9bb0" stroke="none" stroke-width="1px"/><circle cx="164" cy="96" r="3" fill="#8f9bb0" stroke="none" stroke-width="1px"/><g><rect x="280" y="52" width="160" height="36" rx="4" fill="#fff3cf" stroke="#d99700" stroke-width="1.5px"/><text x="360" y="67" fill="#111827" font-family="&quot;IBM Plex Sans&quot;, system-ui, &quot;Segoe UI&quot;, Roboto, sans-serif" font-size="10px" font-weight="600" text-anchor="middle">Hazard detection</text><text x="360" y="80" fill="#111827" font-family="&quot;IBM Plex Sans&quot;, system-ui, &quot;Segoe UI&quot;, Roboto, sans-serif" font-size="10px" font-weight="600" text-anchor="middle">unit</text></g><polyline points="280,62 64,62 64,180" fill="none" stroke="#d99700" stroke-width="2px" stroke-dasharray="5px, 3px"/><path d="M64,180 L60.0,173.0 L68.0,173.0 Z" fill="#d99700" stroke="none" stroke-width="1px"/><text x="70" y="74" fill="#667085" font-family="&quot;IBM Plex Sans&quot;, system-ui, &quot;Segoe UI&quot;, Roboto, sans-serif" font-size="10px">PCWrite</text><polyline points="280,76 254,76" fill="none" stroke="#d99700" stroke-width="2px" stroke-dasharray="5px, 3px"/><path d="M254,76 L261.0,72.0 L261.0,80.0 Z" fill="#d99700" stroke="none" stroke-width="1px"/><polyline points="350,88 350,100" fill="none" stroke="#d99700" stroke-width="2px" stroke-dasharray="5px, 3px"/><path d="M350,100 L346.0,93.0 L354.0,93.0 Z" fill="#d99700" stroke="none" stroke-width="1px"/><rect x="290" y="100" width="110" height="32" rx="16" fill="#e3ebff" stroke="#1650ff" stroke-width="1.5px"/><text x="345" y="121" fill="#111827" font-family="&quot;IBM Plex Sans&quot;, system-ui, &quot;Segoe UI&quot;, Roboto, sans-serif" font-size="12px" text-anchor="middle">Control</text><polyline points="400,116 520,116" fill="none" stroke="#d99700" stroke-width="2px" stroke-dasharray="5px, 3px"/><path d="M520,116 L513.0,120.0 L513.0,112.0 Z" fill="#d99700" stroke="none" stroke-width="1px"/><rect x="300" y="170" width="120" height="160" rx="4" fill="#e3ebff" stroke="#1650ff" stroke-width="1.5px"/><text x="360" y="245" fill="#111827" font-family="&quot;IBM Plex Sans&quot;, system-ui, &quot;Segoe UI&quot;, Roboto, sans-serif" font-size="12px" text-anchor="middle">Register</text><text x="360" y="261" fill="#111827" font-family="&quot;IBM Plex Sans&quot;, system-ui, &quot;Segoe UI&quot;, Roboto, sans-serif" font-size="12px" text-anchor="middle">file</text><rect x="310" y="356" width="100" height="32" rx="16" fill="#ffffff" stroke="#8796ad" stroke-width="1.5px"/><text x="360" y="377" fill="#111827" font-family="&quot;IBM Plex Sans&quot;, system-ui, &quot;Segoe UI&quot;, Roboto, sans-serif" font-size="12px" text-anchor="middle">Imm. gen.</text><polyline points="254,225 280,225 280,198 300,198" fill="none" stroke="#1650ff" stroke-width="2.6px"/><path d="M300,198 L293.0,202.0 L293.0,194.0 Z" fill="#1650ff" stroke="none" stroke-width="1px"/><polyline points="280,225 280,280 300,280" fill="none" stroke="#1650ff" stroke-width="2.6px"/><path d="M300,280 L293.0,284.0 L293.0,276.0 Z" fill="#1650ff" stroke="none" stroke-width="1px"/><circle cx="280" cy="225" r="3" fill="#1650ff" stroke="none" stroke-width="1px"/><polyline points="270,225 270,372 310,372" fill="none" stroke="#8f9bb0" stroke-width="1.8px"/><path d="M310,372 L303.0,376.0 L303.0,368.0 Z" fill="#8f9bb0" stroke="none" stroke-width="1px"/><circle cx="270" cy="225" r="3" fill="#1650ff" stroke="none" stroke-width="1px"/><polyline points="266,225 266,116 290,116" fill="none" stroke="#1650ff" stroke-width="2.6px"/><path d="M290,116 L283.0,120.0 L283.0,112.0 Z" fill="#1650ff" stroke="none" stroke-width="1px"/><circle cx="266" cy="225" r="3" fill="#1650ff" stroke="none" stroke-width="1px"/><polyline points="262,225 262,84 280,84" fill="none" stroke="#d99700" stroke-width="2px" stroke-dasharray="5px, 3px"/><path d="M280,84 L273.0,88.0 L273.0,80.0 Z" fill="#d99700" stroke="none" stroke-width="1px"/><circle cx="262" cy="225" r="3" fill="#1650ff" stroke="none" stroke-width="1px"/><polyline points="420,198 520,198" fill="none" stroke="#1650ff" stroke-width="2.6px"/><path d="M520,198 L513.0,202.0 L513.0,194.0 Z" fill="#1650ff" stroke="none" stroke-width="1px"/><polyline points="420,280 520,280" fill="none" stroke="#1650ff" stroke-width="2.6px"/><path d="M520,280 L513.0,284.0 L513.0,276.0 Z" fill="#1650ff" stroke="none" stroke-width="1px"/><polyline points="410,372 520,372" fill="none" stroke="#8f9bb0" stroke-width="1.8px"/><path d="M520,372 L513.0,376.0 L513.0,368.0 Z" fill="#8f9bb0" stroke="none" stroke-width="1px"/><polyline points="254,96 520,96" fill="none" stroke="#1650ff" stroke-width="2.6px"/><path d="M520,96 L513.0,100.0 L513.0,92.0 Z" fill="#1650ff" stroke="none" stroke-width="1px"/><text x="426" y="192" fill="#b23a12" font-family="&quot;IBM Plex Mono&quot;, ui-monospace, SFMono-Regular, Consolas, monospace" font-size="10px" font-weight="600">f1 (ft1)</text><text x="426" y="274" fill="#b23a12" font-family="&quot;IBM Plex Mono&quot;, ui-monospace, SFMono-Regular, Consolas, monospace" font-size="10px" font-weight="600">f4 (ft4)</text><path d="M580,188 L594,196 L594,244 L580,252 Z" fill="#e3ebff" stroke="#1650ff" stroke-width="1.5px"/><path d="M580,270 L594,278 L594,326 L580,334 Z" fill="#e3ebff" stroke="#1650ff" stroke-width="1.5px"/><polyline points="538,198 580,198" fill="none" stroke="#1650ff" stroke-width="2.6px"/><path d="M580,198 L573.0,202.0 L573.0,194.0 Z" fill="#1650ff" stroke="none" stroke-width="1px"/><polyline points="538,280 580,280" fill="none" stroke="#1650ff" stroke-width="2.6px"/><path d="M580,280 L573.0,284.0 L573.0,276.0 Z" fill="#1650ff" stroke="none" stroke-width="1px"/><polyline points="594,220 630,220 630,208 660,208" fill="none" stroke="#1650ff" stroke-width="2.6px"/><path d="M660,208 L653.0,212.0 L653.0,204.0 Z" fill="#1650ff" stroke="none" stroke-width="1px"/><polyline points="594,302 604,302 604,290 614,290" fill="none" stroke="#1650ff" stroke-width="2.6px"/><path d="M614,290 L607.0,294.0 L607.0,286.0 Z" fill="#1650ff" stroke="none" stroke-width="1px"/><path d="M614,280 L628,288 L628,322 L614,330 Z" fill="#e3ebff" stroke="#1650ff" stroke-width="1.5px"/><text x="621" y="344" fill="#667085" font-family="&quot;IBM Plex Sans&quot;, system-ui, &quot;Segoe UI&quot;, Roboto, sans-serif" font-size="10px" text-anchor="middle">ALUSrc</text><polyline points="538,372 608,372 608,320 614,320" fill="none" stroke="#8f9bb0" stroke-width="1.8px"/><path d="M614,320 L607.0,324.0 L607.0,316.0 Z" fill="#8f9bb0" stroke="none" stroke-width="1px"/><polyline points="628,305 645,305 645,288 660,288" fill="none" stroke="#1650ff" stroke-width="2.6px"/><path d="M660,288 L653.0,292.0 L653.0,284.0 Z" fill="#1650ff" stroke="none" stroke-width="1px"/><path d="M660,168 L720,212.8 L720,283.2 L660,328 L660,276.8 L673.2,248 L660,219.2 Z" fill="#e3ebff" stroke="#1650ff" stroke-width="1.5px"/><text x="698" y="252" fill="#111827" font-family="&quot;IBM Plex Sans&quot;, system-ui, &quot;Segoe UI&quot;, Roboto, sans-serif" font-size="12px" font-weight="600" text-anchor="middle">ALU</text><polyline points="720,248 858,248" fill="none" stroke="#1650ff" stroke-width="2.6px"/><path d="M858,248 L851.0,252.0 L851.0,244.0 Z" fill="#1650ff" stroke="none" stroke-width="1px"/><polyline points="598,302 598,350 858,350" fill="none" stroke="#8f9bb0" stroke-width="1.8px"/><path d="M858,350 L851.0,354.0 L851.0,346.0 Z" fill="#8f9bb0" stroke="none" stroke-width="1px"/><circle cx="598" cy="302" r="3" fill="#8f9bb0" stroke="none" stroke-width="1px"/><rect x="730" y="60" width="50" height="30" rx="12" fill="#ffffff" stroke="#8796ad" stroke-width="1.5px"/><text x="755" y="79" fill="#111827" font-family="&quot;IBM Plex Sans&quot;, system-ui, &quot;Segoe UI&quot;, Roboto, sans-serif" font-size="12px" font-weight="600" text-anchor="middle">+</text><polyline points="538,96 716,96 716,70 730,70" fill="none" stroke="#8f9bb0" stroke-width="1.8px"/><path d="M730,70 L723.0,74.0 L723.0,66.0 Z" fill="#8f9bb0" stroke="none" stroke-width="1px"/><polyline points="548,372 548,82 730,82" fill="none" stroke="#8f9bb0" stroke-width="1.8px"/><path d="M730,82 L723.0,86.0 L723.0,78.0 Z" fill="#8f9bb0" stroke="none" stroke-width="1px"/><circle cx="548" cy="372" r="3" fill="#8f9bb0" stroke="none" stroke-width="1px"/><polyline points="780,75 800,75 800,44 6,44 6,235 18,235" fill="none" stroke="#8f9bb0" stroke-width="1.8px"/><path d="M18,235 L11.0,239.0 L11.0,231.0 Z" fill="#8f9bb0" stroke="none" stroke-width="1px"/><polyline points="884,248 884,392 570,392 570,242 580,242" fill="none" stroke="#8f9bb0" stroke-width="1.8px"/><path d="M580,242 L573.0,246.0 L573.0,238.0 Z" fill="#8f9bb0" stroke="none" stroke-width="1px"/><circle cx="884" cy="248" r="3" fill="#8f9bb0" stroke="none" stroke-width="1px"/><polyline points="570,324 580,324" fill="none" stroke="#8f9bb0" stroke-width="1.8px"/><path d="M580,324 L573.0,328.0 L573.0,320.0 Z" fill="#8f9bb0" stroke="none" stroke-width="1px"/><circle cx="570" cy="324" r="3" fill="#8f9bb0" stroke="none" stroke-width="1px"/><polyline points="560,405 560,220 580,220" fill="none" stroke="#8f9bb0" stroke-width="1.8px"/><path d="M580,220 L573.0,224.0 L573.0,216.0 Z" fill="#8f9bb0" stroke="none" stroke-width="1px"/><circle cx="560" cy="405" r="3" fill="#8f9bb0" stroke="none" stroke-width="1px"/><polyline points="560,302 580,302" fill="none" stroke="#8f9bb0" stroke-width="1.8px"/><path d="M580,302 L573.0,306.0 L573.0,298.0 Z" fill="#8f9bb0" stroke="none" stroke-width="1px"/><circle cx="560" cy="302" r="3" fill="#8f9bb0" stroke="none" stroke-width="1px"/><g><rect x="612" y="420" width="200" height="42" rx="4" fill="#fbfcfd" stroke="#8796ad" stroke-width="1.5px"/><text x="712" y="435" fill="#111827" font-family="&quot;IBM Plex Sans&quot;, system-ui, &quot;Segoe UI&quot;, Roboto, sans-serif" font-size="10px" font-weight="600" text-anchor="middle">Forwarding unit</text><text x="712" y="452" fill="#667085" font-family="&quot;IBM Plex Sans&quot;, system-ui, &quot;Segoe UI&quot;, Roboto, sans-serif" font-size="10px" text-anchor="middle">none in this cycle</text></g><polyline points="620,420 620,346 587,346 587,334" fill="none" stroke="#8f9bb0" stroke-width="1.4px" stroke-dasharray="5px, 3px"/><path d="M587,334 L591.0,341.0 L583.0,341.0 Z" fill="#8f9bb0" stroke="none" stroke-width="1px"/><polyline points="600,420 600,262 587,262 587,252" fill="none" stroke="#8f9bb0" stroke-width="1.4px" stroke-dasharray="5px, 3px"/><path d="M587,252 L591.0,259.0 L583.0,259.0 Z" fill="#8f9bb0" stroke="none" stroke-width="1px"/><rect x="906" y="180" width="120" height="150" rx="4" fill="#ffffff" stroke="#8796ad" stroke-width="1.5px"/><text x="966" y="248" fill="#111827" font-family="&quot;IBM Plex Sans&quot;, system-ui, &quot;Segoe UI&quot;, Roboto, sans-serif" font-size="12px" text-anchor="middle">Data</text><text x="966" y="264" fill="#111827" font-family="&quot;IBM Plex Sans&quot;, system-ui, &quot;Segoe UI&quot;, Roboto, sans-serif" font-size="12px" text-anchor="middle">memory</text><polyline points="876,248 906,248" fill="none" stroke="#8f9bb0" stroke-width="1.8px"/><path d="M906,248 L899.0,252.0 L899.0,244.0 Z" fill="#8f9bb0" stroke="none" stroke-width="1px"/><polyline points="876,350 892,350 892,310 906,310" fill="none" stroke="#8f9bb0" stroke-width="1.8px"/><path d="M906,310 L899.0,314.0 L899.0,306.0 Z" fill="#8f9bb0" stroke="none" stroke-width="1px"/><polyline points="1026,220 1056,220" fill="none" stroke="#8f9bb0" stroke-width="1.8px"/><path d="M1056,220 L1049.0,224.0 L1049.0,216.0 Z" fill="#8f9bb0" stroke="none" stroke-width="1px"/><polyline points="888,248 888,166 1040,166 1040,300 1056,300" fill="none" stroke="#8f9bb0" stroke-width="1.8px"/><path d="M1056,300 L1049.0,304.0 L1049.0,296.0 Z" fill="#8f9bb0" stroke="none" stroke-width="1px"/><circle cx="888" cy="248" r="3" fill="#8f9bb0" stroke="none" stroke-width="1px"/><path d="M1094,205 L1108,213 L1108,307 L1094,315 Z" fill="#ffffff" stroke="#8796ad" stroke-width="1.5px"/><text x="1101" y="330" fill="#667085" font-family="&quot;IBM Plex Sans&quot;, system-ui, &quot;Segoe UI&quot;, Roboto, sans-serif" font-size="10px" text-anchor="middle">MemtoReg</text><polyline points="1074,220 1094,220" fill="none" stroke="#8f9bb0" stroke-width="1.8px"/><path d="M1094,220 L1087.0,224.0 L1087.0,216.0 Z" fill="#8f9bb0" stroke="none" stroke-width="1px"/><polyline points="1074,300 1094,300" fill="none" stroke="#8f9bb0" stroke-width="1.8px"/><path d="M1094,300 L1087.0,304.0 L1087.0,296.0 Z" fill="#8f9bb0" stroke="none" stroke-width="1px"/><polyline points="1108,260 1150,260 1150,405 290,405 290,310 300,310" fill="none" stroke="#8f9bb0" stroke-width="1.8px"/><path d="M300,310 L293.0,314.0 L293.0,306.0 Z" fill="#8f9bb0" stroke="none" stroke-width="1px"/><text x="256" y="486" fill="#667085" font-family="&quot;IBM Plex Sans&quot;, system-ui, &quot;Segoe UI&quot;, Roboto, sans-serif" font-size="10px">rs1:</text><text x="518" y="486" fill="#111827" font-family="&quot;IBM Plex Mono&quot;, ui-monospace, SFMono-Regular, Consolas, monospace" font-size="10px" text-anchor="end">f1 (ft1)</text><text x="256" y="501" fill="#667085" font-family="&quot;IBM Plex Sans&quot;, system-ui, &quot;Segoe UI&quot;, Roboto, sans-serif" font-size="10px">rs2:</text><text x="518" y="501" fill="#111827" font-family="&quot;IBM Plex Mono&quot;, ui-monospace, SFMono-Regular, Consolas, monospace" font-size="10px" text-anchor="end">f4 (ft4)</text><text x="256" y="516" fill="#667085" font-family="&quot;IBM Plex Sans&quot;, system-ui, &quot;Segoe UI&quot;, Roboto, sans-serif" font-size="10px">Destination:</text><text x="518" y="516" fill="#111827" font-family="&quot;IBM Plex Mono&quot;, ui-monospace, SFMono-Regular, Consolas, monospace" font-size="10px" text-anchor="end">f5 (ft5)</text><text x="256" y="561" fill="#b23a12" font-family="&quot;IBM Plex Sans&quot;, system-ui, &quot;Segoe UI&quot;, Roboto, sans-serif" font-size="10px" font-weight="600">stalled: EX busy</text><text x="540" y="486" fill="#667085" font-family="&quot;IBM Plex Sans&quot;, system-ui, &quot;Segoe UI&quot;, Roboto, sans-serif" font-size="10px">rs1 = f1 (ft1):</text><text x="856" y="486" fill="#111827" font-family="&quot;IBM Plex Mono&quot;, ui-monospace, SFMono-Regular, Consolas, monospace" font-size="10px" text-anchor="end">2.0</text><text x="540" y="501" fill="#667085" font-family="&quot;IBM Plex Sans&quot;, system-ui, &quot;Segoe UI&quot;, Roboto, sans-serif" font-size="10px">rs2 = f2 (ft2):</text><text x="856" y="501" fill="#111827" font-family="&quot;IBM Plex Mono&quot;, ui-monospace, SFMono-Regular, Consolas, monospace" font-size="10px" text-anchor="end">3.0</text><text x="540" y="516" fill="#667085" font-family="&quot;IBM Plex Sans&quot;, system-ui, &quot;Segoe UI&quot;, Roboto, sans-serif" font-size="10px">progress:</text><text x="856" y="516" fill="#111827" font-family="&quot;IBM Plex Mono&quot;, ui-monospace, SFMono-Regular, Consolas, monospace" font-size="10px" text-anchor="end">2 / 5</text></svg>
